<?xml version="1.0" encoding="UTF-8"?>
<svg version="1.1" viewBox="0 0 2000 2000" width="500" height="500" xmlns="http://www.w3.org/2000/svg">
<path transform="translate(986,14)" d="m0 0h31l30 3 30 5 26 6 26 9 21 9 16 8 17 10 13 9 11 9 10 9 8 7 14 14 9 11 11 14 13 21 12 23 8 20 6 18 8 32 4 32 2 33v25l-2 29-4 27-6 26-7 26-1 6 4 2 11 7 11 9 8 8 7 10 8 16 4 14 3 20 2 22v66l-4 32-4 17-6 15-8 12-12 13-10 9-1 2-1 9v774l2 5 22 22 11 18 5 14 3 16 3 31 1 25v16l-1 29-4 30-4 17-6 15-7 11-11 12-8 7-10 6-16 7-32 8-6 5-7 10-9 10-14 13-22 18-15 10-9 7-6 7-11 17-13 19-12 16-9 10-11 10-15 10-16 8-20 6-20 4-18 2h-39l-24-3-21-5-15-6-15-8-16-11-10-9-5-5-8-9-13-19-8-11-8-13-9-10-15-11-9-7-17-14-11-10-8-7-11-13-6-8-14-5-26-7-16-8-13-10-9-9-9-14-5-11-4-13-4-26-3-37v-29l2-30 4-27 5-16 7-14 9-12 15-15 4-7 1-7v-775l-4-6-16-15-8-11-8-15-5-17-4-28-2-41 1-37 3-30 5-21 7-16 8-12 11-12 9-7 11-7 5-4-1-10-9-36-5-28-3-27v-59l5-37 6-27 6-20 11-26 12-23 10-16 12-17 13-15 15-16 13-12 14-12 20-13 16-9 22-10 28-10 17-5 38-7 25-3z" fill="#040203"/>
<path transform="translate(986,14)" d="m0 0h31l30 3 30 5 26 6 26 9 21 9 16 8 17 10 13 9 11 9 10 9 8 7 14 14 9 11 11 14 13 21 12 23 8 20 6 18 8 32 4 32 2 33v25l-2 29-4 27-6 26-7 26-1 6 4 2 11 7 11 9 8 8 7 10 8 16 4 14 3 20 2 22v66l-4 32-4 17-6 15-8 12-12 13-10 9-1 2-1 9v774l2 5 22 22 11 18 5 14 3 16 3 31 1 25v16l-1 29-4 30-4 17-6 15-7 11-11 12-8 7-10 6-16 7-32 8-6 5-7 10-9 10-14 13-22 18-15 10-9 7-6 7-11 17-13 19-12 16-9 10-11 10-15 10-16 8-20 6-20 4-18 2h-39l-24-3-21-5-15-6-15-8-16-11-10-9-5-5-8-9-13-19-8-11-8-13-9-10-15-11-9-7-17-14-11-10-8-7-11-13-6-8-14-5-26-7-16-8-13-10-9-9-9-14-5-11-4-13-4-26-3-37v-29l2-30 4-27 5-16 7-14 9-12 15-15 4-7 1-7v-775l-4-6-16-15-8-11-8-15-5-17-4-28-2-41 1-37 3-30 5-21 7-16 8-12 11-12 9-7 11-7 5-4-1-10-9-36-5-28-3-27v-59l5-37 6-27 6-20 11-26 12-23 10-16 12-17 13-15 15-16 13-12 14-12 20-13 16-9 22-10 28-10 17-5 38-7 25-3zm-8 63-27 4-23 6-22 8-18 8-21 12-13 9-14 11-4 3v2l-4 2-19 19-11 14-8 11-8 13-10 18-11 26-8 27-4 22-2 22v24l4 31 5 22 6 19 7 17 9 19 16 24 8 11-1 7-2 5-1 13h-42l-15 5-11 7-6 5-9 12-5 10-2 9-1 9v67l3 14 8 16 9 10 11 8 12 5 4 1v879l-12 4-12 7-10 10-8 13-3 8-2 13v68l2 13 5 11 7 10 9 9 9 6 14 5 5 1 39 1 2 11 4 12 8 11 7 7 7 5 12 6 6 9 7 7 7 5 8 3 16 3 3 16 4 9 7 9 9 9 8 14 8 10 6 7h2l2 4 12 9 16 8 15 5 12 2h22l18-4 15-6 14-8 12-11 8-8 7-10 8-14 9-8 7-11 3-7 2-15 20-4 13-8 7-7 4-8 17-9 9-8 8-11 5-14 1-3v-8h32l15-2 13-5 11-8 7-7 7-11 4-12 1-5 1-66-2-18-4-11-7-11-9-10-13-8-13-5v-878l12-4 11-6 10-9 9-14 4-11 1-7 1-66-2-16-4-11-7-12-11-11-10-6-13-4-5-1-38-1-3-13-2-7 4-7 8-10 13-21 9-17 10-25 5-16 5-24 3-27v-24l-2-22-4-22-6-22-10-25-8-16-8-14-12-17-9-11-18-20-10-9-15-12-22-14-23-12-23-9-26-7-30-5z" fill="#FBFBFB"/>
<path transform="translate(892,661)" d="m0 0 17 1h49l-2 1v2l-13 10-10 9-7 6-1 51v84l6-3 15-13 11-9 14-12 11-9 13-11 8-6 13-11 1-2 5-3 13-11 1-2 4-2 3-3 5-4 11-9 10-9 14-11 15-13 5-5 5-3 7-8 5-3h61l2 7v63l-2 4-11 9-13 11-10 8-28 24-11 9-14 12-13 11-10 8-10 9-10 8-14 12-14 11-11 10-9 7h-2l-2 4-11 9-14 12-11 9-13 11-11 9-12 10-1 5 1 129 9-7 14-12 11-9 14-12 11-9 14-12 13-10 11-10 10-8 14-12 10-8 14-12 13-11 11-9 14-12 11-9 17-14 15-13 11-9 14-12 4-2 1 3v117l-2 6-11 8h-2l-1 3-5 3-13 11-22 18-13 11-11 9-13 11-14 11-11 10-11 9-14 12-13 11-11 9-10 9-5 3-5 5-15 13-11 9-14 12-8 7-6 5h-2v2l-10 8-4 3-1 14v120h4l10-8 13-11 11-9 13-11 11-9 13-11 11-9 14-12 13-11 11-9 13-11 11-9 14-12 11-9 15-13 14-11 11-10 11-9 15-13 13-11 3-3 3 1v111l-5 5-11 9-14 12-11 9-15 13-11 9-14 12-13 11-10 8-14 12-11 9-14 12-11 9-14 12-11 9-10 9-14 11-15 13-11 9-14 12-10 8-4 5v120l-1 5-8 1-6-2v-112l-11 8-9 8-11 9-14 12-13 11-11 9-14 12-9 7-2-1v-111l5-5 11-9 13-11 11-9 13-11 11-9 10-9 10-8 10-9 1-22v-30l-1-83-12 9-12 10-11 9-14 12-11 9-15 13-14 12-5 1v-119l3-5 15-13 11-9 26-22 11-9 12-11 14-11 1-1v-134l-9 7-14 12-14 11-14 12-11 9-10 9-11 9-7 6h-3v-114l1-10h3l1-3 11-8 9-8 14-11 11-10 11-9 12-11 20-16 1-2 1-35-1-100-9 7-13 11-8 6-13 11-5 4-3 3-6 5h-2l-1 3-13 10-11 9-1 2h-2l-1 3h-3l-1 3-2-1v-82l1-34 3-1h67z" fill="#FAFAFB"/>
<path transform="translate(987,135)" d="m0 0h26l25 3 19 5 22 8 19 10 16 11 11 9 10 9 13 14 11 15 11 19 8 18 6 18 5 23 2 24-1 25-4 23-7 23-8 18-7 13-8 12-10 13-14 15-11 10-15 11-7 4h-197l-11-6-13-10-13-12-9-9-11-14-10-15-9-17-9-24-5-22-3-25v-20l3-24 5-20 7-20 13-25 13-18 9-10 7-8 12-11 18-13 15-9 22-10 21-6 21-4z" fill="#FBFBFB"/>
<path transform="translate(978,77)" d="m0 0h47l30 5 26 7 25 10 23 12 21 14 16 13 15 14 7 8 11 13 12 17 9 15 8 16 9 21 6 20 5 23 2 15 1 14v24l-3 27-6 28-8 23-11 24-13 22-8 11-7 9-1 5 3 8 2 10 38 1 15 4 10 5 10 9 6 7 8 16 2 9 1 11-1 66-2 10-5 12-9 12-11 9-13 6-7 2v878l15 6 11 7 7 7 9 14 4 11 2 18-1 66-3 12-6 12-11 12-10 7-13 5-15 2h-32v8l-4 12-4 8-9 11-9 7-14 7-4 8-8 8-12 7-20 4-2 15-6 12-7 9-7 6-8 15-9 11-13 13-14 9-16 7-15 4-6 1h-22l-12-2-15-5-16-8-9-7-5-4v-2h-2l-7-8-9-12-7-12-11-11-6-9-3-9-2-13-19-4-8-4-12-11-6-9-14-7-12-11-7-10-5-15-1-8-39-1-11-3-10-4-10-8-8-8-6-9-4-10-2-13v-68l2-13 4-10 7-11 10-10 14-8 10-3v-879l-14-5-11-7-9-9-6-10-5-12-2-11v-67l2-14 4-10 6-10 6-7 14-10 13-5 4-1h42l1-13 3-8-1-5-13-19-10-15-11-23-7-18-7-26-4-23-2-18v-24l3-29 5-22 7-23 12-27 12-21 11-16 11-13 7-8 15-15h2v-2l14-11 11-8 20-12 16-8 25-10 21-6 20-4zm8 21-29 3-20 5-24 8-24 12-19 12-12 9-15 13-14 14-9 11-12 17-8 13-8 16-9 24-7 28-3 22v38l3 23 4 19 5 16 6 16 10 21 11 18 11 13 7 9v5l-5 9-3 12v21l-60 2-9 3-8 6-7 8-5 11-1 5v72l3 11 7 9 8 7 12 5 16 2 1 10v904l-2 1-13 2-11 4-9 6-6 7-5 13-1 4v71l4 12 6 8 7 6 8 4 8 2 39 1 17 1v14l2 13 4 9 7 8 8 5 13 5 7 13 8 7 8 3 10 2 12 5 4 9 6 20 7 8 9 10 4 8 8 12 9 10 11 8 13 6 9 3 11 2h20l16-4 16-8 9-7 8-8 9-14 7-11 13-13 3-10 4-14 5-8 8-4 20-5 8-6 7-13 7-3 12-6 7-6 5-9 3-11v-19l1-1 54-2 13-3 10-7 7-9 4-9 1-9v-69l-3-10-4-6-9-9-11-5-6-2-14-1-1-1v-911l1-3 14-2 11-4 10-6 6-7 4-8 2-13v-67l-4-13-9-10-9-6-8-3-17-1h-22l-21-1v-21l-2-9-6-12 3-5 10-13 14-21 10-18 8-17 7-21 3-12 4-24 1-10v-39l-3-21-6-24-7-20-8-16-8-15-8-12-8-11-18-20-13-12-16-12-17-11-21-11-18-7-24-7-30-5-10-1z" fill="#E01012"/>
<path transform="translate(1182,1246)" d="m0 0 2 3 1 10v120l-1 2-1 14v97l-2 5-13 11-9 7-13 11-11 9-14 12-13 11-11 9-15 13-11 9-10 9-135 1-3 1h-101l-7-2-1-1v-22l1-17 2-7 6-4 15-13 11-9 14-12 11-9 26-22 9-7h2l1 112 7 1h6v-125l7-8 16-13 14-12 11-9 14-12 10-8 9-8 11-9 13-11 11-9 28-24 11-9 13-11 11-9 14-12 11-9 15-13 11-9 13-11 12-10z" fill="#0000EB"/>
<path transform="translate(986,98)" d="m0 0h29l30 4 21 5 24 8 25 12 17 11 16 12 14 12 9 9 7 8 8 10 10 15 8 14 8 16 6 15 7 24 4 20 1 10v39l-3 22-4 20-5 17-9 21-10 19-16 24-8 10-5 7 3 7 4 9 1 6v21l30 1h13l17 1 12 5 10 9 5 7 3 11v67l-2 13-6 11-8 7-13 6-9 2-9 1-1 3v911l1 1 14 1 13 5 6 4 9 9 4 10 1 4v69l-2 12-5 9-7 8-8 5-13 3-54 2-1 1v19l-4 14-7 9-9 6-13 5-3 4-5 10-5 4-6 3-17 4-8 4-6 10-5 20-7 8-8 8-10 17-8 10-8 8-13 8-12 5-13 3h-20l-14-3-13-5-11-6-12-11-9-13-5-8-4-7-12-12-4-11-5-17-4-4-13-5-11-2-8-5-6-7-5-10-15-6-9-7-6-8-3-10-1-16v-7l-17-1-39-1-13-4-9-7-6-7-4-10-1-4v-71l4-13 6-9 9-7 9-4 8-2 9-1 2-1v-904l-1-10-16-2-12-5-10-9-5-7-3-11v-72l3-10 6-10 7-7 9-5 5-1 60-2v-21l4-14 4-7v-5l-11-13-11-15-9-16-11-24-7-21-4-17-3-19-1-10v-38l4-27 7-26 8-21 8-16 6-10 11-16 9-11 11-12 10-10 11-9 12-9 22-14 21-10 27-9 17-4zm-3 14-23 3-17 4-21 7-20 9-14 8-11 7-13 10-15 14-9 9-11 14-8 11-9 15-10 21-7 19-5 20-3 20-1 15v16l2 20 5 26 7 22 9 20 8 15 11 16 9 11 9 10 12 12-10 2-9 8-2 6-1 38h-67l-9 2-10 9-3 6-1 4v69l4 10 8 7 7 3 28 1v945l-28 1-9 4-8 9-2 7v70l3 8 5 5 7 5 15 2h58l2 1 1 37 3 7 7 6 7 2 16 1 1 15 4 6 5 3 14 2 12 6 7 7 5 9 3 12 2 9 4 4 10 2 1 9 8 16 6 8 10 8 12 7 13 4h24l14-4 13-7 11-10 9-14 4-9 2-8 9-2 5-6 3-16 6-12 8-8 8-4 7-2 13-2 4-4 2-5v-15h18l8-3 6-7 2-5 1-37 72-2 8-4 7-8 2-4 1-8v-62l-2-9-4-6-7-6-6-2-29-1v-920l1-25 28-1 10-5 6-7 2-5 1-6v-64l-2-9-6-8-9-5-6-1-67-1-1-38-4-8-7-5-7-2 6-7 12-12 9-11 8-11 11-18 10-21 8-24 5-23 2-16v-37l-4-25-5-20-7-19-11-23-12-18-11-14-12-13-10-10-14-11-15-10-27-14-22-8-25-6-23-3z" fill="#040203"/>
<path transform="translate(983,112)" d="m0 0h35l23 3 25 6 22 8 22 11 16 10 14 11 12 11 10 10 9 11 11 15 9 15 10 21 8 24 5 23 2 15v37l-4 27-6 22-6 16-11 23-11 17-8 10-11 13-14 14 4 2 9 5 4 6 1 3 1 38 67 1 9 2 7 5 6 9 1 7v64l-2 9-4 6-6 5-7 3-28 1-1 25v920l29 1 7 3 8 7 3 6 1 7v62l-2 10-4 6-7 6-5 2-72 2-1 37-4 8-6 5-6 2h-18v15l-4 8-6 2-12 2-10 4-8 7-6 9-3 8-2 13-5 6-9 2-4 13-6 11-8 10-8 7-16 8-11 3h-24l-15-5-13-8-8-7-7-10-6-13-1-9-10-2-4-4-3-13-3-10-6-9-8-7-9-4-17-3-5-6-1-2-1-15-16-1-9-3-7-8-1-4-1-37-2-1h-58l-15-2-10-7-4-7-1-4v-70l3-8 7-8 9-4 28-1v-945l-28-1-10-5-6-7-3-8v-69l3-8 7-8 7-4 6-1h67l1-38 3-7 8-7 10-2-19-19-11-14-12-18-11-21-7-17-6-22-4-21-2-20v-16l2-23 5-25 7-21 7-16 10-19 11-16 11-13 7-8 12-12 11-9 14-10 16-9 16-8 21-8 19-5 18-3zm-2 11-16 2-25 6-17 6-16 7-13 8-11 7-13 10-12 11-10 10-11 14-10 15-9 16-9 21-6 19-4 19-2 19v25l3 23 5 21 8 22 9 19 10 16 9 12 9 11 14 14 11 9 11 8 6 4-38 1-4 2-3 8v23l1 19 1 2-29-1h-51l-9 6-3 6-1 23v26l1 15 3 6 6 5 2 1 41 1-4 6-1 151v540l1 262 3 8-40 1-8 5-3 6-1 11v47l2 11 5 5 7 3h79l-2 6v36l2 8 5 3h29l-1 5v19l16 4 10 4 8 6 8 9 5 11 4 17 11 1 2 5 3 12 6 12 10 11 12 8 15 4h17l9-2 12-6 12-11 6-10 5-13 2-10h10l2-2 4-17 6-11 7-8 10-7 10-4 12-2 2-1v-18l-2-6h30l5-3 1-3v-43l-1-3 78-1 8-2 5-6 1-4v-63l-3-7-6-5-2-1-41-1 3-5 1-8v-945l-3-7-1-1 3-1 37-1 6-3 4-4 2-7v-60l-3-7-5-5-7-2h-77l1-3v-44l-2-4-7-2-32-1 19-14 16-15 13-14 12-17 8-13 12-26 8-26 4-23 1-14v-20l-2-20-5-23-7-21-9-20-12-20-10-14-9-10-7-8-12-11-13-10-16-10-15-8-20-8-23-6-19-3z" fill="#BDBDBE"/>
<path transform="translate(1181,997)" d="m0 0h1l1 5v111l-1 19h-2l-2 4-11 10-11 9-28 24-13 11-11 9-14 12-11 9-15 13-14 11-10 9-10 8-28 24-9 7-14 12-17 14-14 12-11 9-8 6-4 1-1-2v-120l1-14 11-9 4-2v-2l10-8 9-8 11-9 14-12 13-11 7-6 11-9 10-9 10-8 14-12 11-9 15-13 13-11 10-8 14-12 10-8 13-11 22-18 7-6 3-1 5-5z" fill="#E00F11"/>
<path transform="translate(1181,736)" d="m0 0 2 2 1 3 1 16v62l-1 51-3 3-11 9-15 13-11 9-14 12-10 8-14 12-10 8-14 12-11 9-15 13-10 8-15 13-10 8-10 9-13 10-14 12-11 9-14 12-11 9-15 13-7 4-1-133 5-5 11-10 11-9 13-11 11-9 14-12 10-8 5-5 10-8 10-9 14-11 14-12 11-9 10-9 10-8 11-9 15-13 11-9 15-13 11-9 14-12 10-8z" fill="#0000C1"/>
<path transform="translate(978,77)" d="m0 0h47l30 5 26 7 25 10 23 12 21 14 16 13 15 14 7 8 2 4-2 2 4 2 5 6 1 5 3 1 2 5 1 3 2 1 1 2 1 4 1 3 4 3 8 17-1 3 4 2-1 9-2-1 2 5 1 9h-3v-4l-5-5-8-16-4-7-5-5-10-16-13-17-14-15-7-7-9-7-15-11-19-11-14-7-20-8-13-4-11-3-24-4-11-1h-36l-31 4-24 7-22 8-19 10-16 10-11 8-10 8-10 9-10 10-1 2h-2l-2 4-8 10-11 16-9 15-7 16-5 12-4 11-5 19-4 22-1 13v37l5 29 6 23 5 14 5 12 7 12 6 10 9 13 12 14 3 3v5l-4 8-4 15v16l-1 2-8 1-48 1-13 4-8 4-10 11-3 1v3h-2l-1 4-3 10-2 19v17l1 20 3 21 3 12 3 4v3h2v3l6 1 2 3 5 2 7 7 1 6 4 1 2 3 1 730v-584l1-139 1-2 5 1 3 7v3h2l1 4 2-1v738l-2 4-1 91-2 13v7l-5 5-4 1-1-3v-31l-1 35-9 3-14 7-2-1 10-6 12-4v-879l-14-5-11-7-9-9-6-10-5-12-2-11v-67l2-14 4-10 6-10 6-7 14-10 13-5 4-1h42l1-13 3-8-1-5-13-19-10-15-11-23-7-18-7-26-4-23-2-18v-24l3-29 5-22 7-23 12-27 12-21 11-16 11-13 7-8 15-15h2v-2l14-11 11-8 20-12 16-8 25-10 21-6 20-4z" fill="#F41012"/>
<path transform="translate(983,96)" d="m0 0h36l16 2 23 4 17 5 19 7 16 8 16 9 12 8 20 16 14 14 9 11 11 15 10 16 4 4 8 14 2 6 5 4v2l2 1-2 3h3l-2-9-2-3 1-3h1l1-7-3-2-1-6-8-15-3-2-1-6-2-1-2-5-2-4-2-2-2-1-2-6-5-6-2-1 1-3 6 5 12 16 12 19 8 16 8 18 7 21 5 22 3 20 1 14v24l-3 27-6 28-8 23-11 24-13 22-8 11-7 9-1 5 3 8 2 10 38 1 15 4 10 5 10 9 6 7 8 16 2 9 1 11-1 66-2 10-5 12-9 12-11 9-10 5-9 1-2 1-1 89h-1v-79h-2v31l1 37v144h-1l-1 22h-1l-1-16-2-1-1 17-1 2-1 12-2 3h-2v8l3 1-1 3 1 4-3 3-1 17v26h2l2 7-1 10-2 43-1 3v78l2 48 2 6 1 13 3 16 2-11 1-9h1l1-17h1v335l1-54h1l1 90-5 3-1 3h-2l1 5 5 4 12 5 2 5-6-2-11-4-14-1-2-2v-911l2-4 14-2 11-4 10-6 6-8 4-10 1-9v-67l-4-13-9-10-10-6-6-2-17-1h-22l-21-1-1-1v-21l-2-9-6-12 3-5 10-13 14-21 10-18 8-17 7-21 3-12 4-24 1-10v-39l-3-21-6-24-7-20-8-16-8-15-8-12-8-11-18-20-12-11-16-12-17-11-21-11-18-7-24-7-30-5-10-1h-29l-29 3-20 5-24 8-24 12-19 12-12 9-15 13-13 13-9 11-12 17-8 13-8 16-9 24-7 28-3 22v38l3 23 4 19 5 16 6 16 10 21 11 18 11 13 7 9v5l-5 9-3 12-1 21-2 1-58 2-9 3-8 6-6 7-5 11-1 5v72l3 11 7 9 7 6 12 5 16 2 1 1 1 10v904l-3 2-13 2-11 4-9 6-6 8-4 11-1 4v71l4 12 6 8 9 7 13 4 39 1 17 1 1 1v14l2 13 4 9 6 7 8 5 13 5 4 6 4 8 7 6 8 3 10 2 12 5 4 7 7 23 7 8 9 10 4 8 8 12 9 10 10 7 13 6 9 3 11 2h20l16-4 16-8 9-7 7-7 9-14 7-11 13-13 3-10 4-14 6-9 8-4 20-5 8-6 6-12 4-3 11-4 9-6 6-8 4-14v-19l2-2 54-2 13-3 10-7 6-8 4-9 1-9v-69l-1-8 2 2 2 8v68l-2 11-3 6-6 8-8 8-9 4-4 1-34 1h-25v21l-2 8-5 10-8 8-10 5-8 1v2h-2l-3 9-6 8-8 4-19 4-6 4-5 7-4 15-3 9-8 9-5 4-8 14-6 9-9 10-8 7-15 8-16 5-8 1h-13l-13-2-13-4-12-6-11-7-10-11-9-13-6-12-4-3v-2l-4-1-4-6-4-14-4-13-5-5-10-4-13-2-8-5-7-8-4-9-13-5-11-8-5-7-3-9-1-4-1-16 1-6h-52l-12-2-9-4-6-4-7-10-4-11-1-12 1-63 2-10 5-10 5-5 9-7 15-5 10-1 1-1 1-911h-8l-14-3-9-4-9-8-5-9-3-8v-73l2-10 5-10 8-9 8-5 11-3 56-1v-18l4-15 4-8v-5l-7-7-11-14-8-12-8-14-6-12-6-16-5-17-3-13-4-25v-37l2-19 5-24 6-20 5-13 7-15 8-14 13-19 9-11 2-3h2l2-4 16-16 14-11 13-9 22-13 15-7 26-9 15-4z" fill="#E01012"/>
<path transform="translate(840,1619)" d="m0 0h31l113 2 182 1 13 1v2l-31 1-26 1-8 1 3 1 46 2h18l35 1v3l-6 1-77 2-23 2-1 1 56 2 33 1 7 1-1 4-64 2h-10l-9 2-1 1 16 1 64 2 2 1-1 3-6 1-75 2-14 1 2 1 12 1 74 2 15 2 1 2-7 1-48 1-28 1-10 2 28 2 2 1v2l-69 1-140 1h-88l-31-1-8-1 1-3 16-2-30-4-3-1 1-5 24-2-8-2-15-2-4-1 1-5 21-2-1-2-8-1-10-2-1-4 2-2 21-2-1-1-21-3-2-1 1-4 10-3 3-1-1-5 5-3z" fill="#161516"/>
<path transform="translate(1181,1382)" d="m0 0h2v110l-2 5-13 11-9 7-13 11-11 9-14 12-13 11-11 9-15 13-11 9-10 9h-135l2-4 11-9 13-11 14-12 11-9 17-14 15-13 11-9 14-12 17-14 14-12 11-9 13-11 11-9 14-12 11-9 13-11 11-9 14-12 11-9z" fill="#FBFBFB"/>
<path transform="translate(1181,872)" d="m0 0 2 1v119l-2 6-11 8h-2l-1 3-5 3-13 11-22 18-13 11-11 9-13 11-14 11-11 10-11 9-14 12-13 11-11 9-10 9-6 3 1-6-1-12 1-91 2-3h2l1-6 10-9 3-1 2-4h2l1-3 5-5 5-3 10-9 5-4h2v-2l5-3 3-6 6-3 5-6 4-1 1-2 4-2-1-2 6-3 5-6 8-7 8-8 5-2 2-5 4-1 2-4 6-3 12-10 4-4h3l2-4 11-9 9-8 6-4 7-5 2-1 1-5-2-1z" fill="#BDBDBE"/>
<path transform="translate(842,564)" d="m0 0h48l55 1h153l23 1 7 1-1 2-15 1 1 1 24 1 61 2 6 2v2l-2 1-31 1-66 1v3l17 1 72 2 12 1 1 2-9 2h-34l-54 1v3l29 2 26 1 39 1 6 2-4 2-77 1-18 1-2 4 81 2 17 1 4 1v2l-86 1v4l13 2 48 1 5 1-4 2-228 1h-122l-33-1-10-1v-3l26-2v-2l-5-1-18-1-8-2 2-3 18-2 19-1 2-1-12-2-16-1-7-2 1-3 16-3 17-1v-2l-27-1-7-1v-4l20-4 21-1v-2h-22l-20-1-1-4 4-1v-2l27-3 2-1v-3z" fill="#171617"/>
<path transform="translate(1120,663)" d="m0 0h61l2 7v63l-2 4-11 9-13 11-10 8-28 24-11 9-14 12-13 11-10 8-10 9-10 8-14 12-14 11-11 10-9 7-2-1-2-6v-39l1-72 2-2v-3l14-12 1-2 5-3 13-11 1-2 4-2 3-3 5-4 11-9 10-9 14-11 15-13 5-5 5-3 7-8z" fill="#BDBDBE"/>
<path transform="translate(888,652)" d="m0 0h81l1 1h143l8 1 1 6-2 4-8 6-6 7h-3l-2 4-13 11-22 18-15 13-5 2-1 3-4 1-2 4h-3l-2 4-14 12h-3l-2 4-14 12-8 6-13 11-11 9-13 11-14 12-11 9-3 2h-3l-1-20v-64l1-51 13-12 14-11 4-2v-2l8-6h-38l-28 1-5 1-9-2-1-4z" fill="#F51012"/>
<path transform="translate(983,96)" d="m0 0h36l16 2 23 4 17 5 19 7 16 8 16 9 12 8 20 16 14 14 9 11 11 15 10 16 4 4 8 14 2 6 5 4v2l2 1-2 3h3l-2-9-2-3 1-3h1l1-7-3-2-1-6-8-15-3-2-1-6-2-1-2-5-2-4-2-2-2-1-2-6-5-6-2-1 1-3 6 5 12 16 12 19 8 16 8 18 7 21 5 22 3 20 1 14v24l-3 27-6 28-8 23-11 24-13 22-8 11-7 9-1 5 3 8 2 10 38 1 15 4 10 5 4 4v2l6 7 3 9-1 5-3 8h-2v-2h-2l-2-8-6-4 5 8-1 2-9-10-10-6-6-2-17-1h-22l-21-1-1-1v-21l-2-9-6-12 3-5 10-13 14-21 10-18 8-17 7-21 3-12 4-24 1-10v-39l-3-21-6-24-7-20-8-16-8-15-8-12-8-11-18-20-12-11-16-12-17-11-21-11-18-7-24-7-30-5-10-1h-29l-29 3-20 5-24 8-24 12-19 12-12 9-15 13-13 13-9 11-12 17-8 13-8 16-9 24-7 28-3 22v38l3 23 4 19 5 16 6 16 10 21 11 18 11 13 7 9v5l-5 9-3 12-1 21-2 1-58 2-9 3-8 6-6 7-5 11-1 5v72l3 11 7 9 7 6 12 5 16 2 1 1 1 10v904l-3 2-13 2-11 4-9 6-6 8-4 11-1 4v71l4 12 6 8 9 7 13 4 39 1 17 1 1 1v14l2 13 4 9 6 7 8 5 13 5 4 6 4 8 7 6 8 3 10 2 12 5 4 7 7 23 7 8 9 10 4 8 8 12 9 10 10 7 13 6 9 3 11 2h20l16-4 16-8 9-7 7-7 9-14 7-11 13-13 3-10 4-14 6-9 8-4 20-5 8-6 6-12 4-3 11-4 9-6 6-8 4-14v-19l2-2 54-2 13-3 10-7 6-8 4-9 1-9v-69l-1-8 2 2 2 8v68l-2 11-3 6-6 8-8 8-9 4-4 1-34 1h-25v21l-2 8-5 10-8 8-10 5-8 1v2h-2l-3 9-6 8-8 4-19 4-6 4-5 7-4 15-3 9-8 9-5 4-8 14-6 9-9 10-8 7-15 8-16 5-8 1h-13l-13-2-13-4-12-6-11-7-10-11-9-13-6-12-4-3v-2l-4-1-4-6-4-14-4-13-5-5-10-4-13-2-8-5-7-8-4-9-13-5-11-8-5-7-3-9-1-4-1-16 1-6h-52l-12-2-9-4-6-4-7-10-4-11-1-12 1-63 2-10 5-10 5-5 9-7 15-5 10-1 1-1 1-911h-8l-14-3-9-4-9-8-5-9-3-8v-73l2-10 5-10 8-9 8-5 11-3 56-1v-18l4-15 4-8v-5l-7-7-11-14-8-12-8-14-6-12-6-16-5-17-3-13-4-25v-37l2-19 5-24 6-20 5-13 7-15 8-14 13-19 9-11 2-3h2l2-4 16-16 14-11 13-9 22-13 15-7 26-9 15-4z" fill="#E00F11"/>
<path transform="translate(764,690)" d="m0 0 5 1 3 7v3h2l1 4 2-1v738l-2 4-1 91-2 13v7l-5 5-4 1-1-3v-31l-1 35-9 3-14 7-2-1 10-6 12-4 1-861h2l1 713v-584l1-139z" fill="#F51012"/>
<path transform="translate(909,1224)" d="m0 0h2l1 4 1 92v17l-1 22-14 13-10 8-14 12-13 11-11 9-14 12-14 11-2 2h-3l-1-23v-27l1-86 3-3 11-9 15-13 11-9 15-13 22-18z" fill="#E01012"/>
<path transform="translate(909,703)" d="m0 0h2l1 8 1 96-1 31-4 5-20 16-12 11-11 9-11 10-14 11-13 11-5 3-1 2-3-1-1-2v-131l3-5 3-1 1-2h2l2-4 11-9 12-9 5-5 4-3h2l1-3 8-7 13-11 11-8 10-9z" fill="#C10E0F"/>
<path transform="translate(910,964)" d="m0 0h1v135l-14 12-11 9-12 11-11 9-13 11-11 9-14 12-8 6-2-10v-117l1-10 9-6 11-10 11-9 10-9 10-8 17-14 13-11z" fill="#0000C2"/>
<path transform="translate(1147,1023)" d="m0 0h2v2l-10 8-11 10-6 4-15 13-14 11-12 11-10 8-9 7-5 5-11 9-26 22-11 9-4 2v2l-11 9 1 1 3 1 2 4-1 37-1 4 1 7v22l-1 19 1 8 4 6v2l5-1 4 1 1 4-3 1-2 4-2 3 11-9 11-10 14-11 8-7 2 1-12 11-10 8-28 24-9 7-14 12-17 14-14 12-11 9-8 6-4 1-1-2v-120l1-14 11-9 4-2v-2l10-8 9-8 11-9 14-12 13-11 7-6 11-9 10-9 10-8 14-12 11-9 15-13 13-11 10-8 14-12 10-8 13-11 11-9z" fill="#F51012"/>
<path transform="translate(989,897)" d="m0 0 5 1 4 3 2 10v8l2 11v80l-3 9-4 7-5 6-5 5-26 22-11 9-15 13-7 4-1-133 5-5 11-10 11-9 13-11 11-9z" fill="#0000EB"/>
<path transform="translate(888,652)" d="m0 0h81l1 1h143l8 1 1 6-2 4-8 6-6 7h-3l-2 4-13 11-22 18-15 13-5 2-1 3-4 1-2 4h-3l-2 4-14 12h-3l-2 4-10 8-5 1 1-11-1-3v-56l-1-27-20-1h-21l1-3 5-4h-38l-28 1-5 1-9-2-1-4z" fill="#C10E0F"/>
<path transform="translate(827,244)" d="m0 0 1 3-5 13-4 13-3 12-3 22v34l3 24 1 3 2-2 1-6 2-8h4l1-5h2v-5l2-1 2 1v-2l5-1 1 1h8l7 5v5l2 2 10 2 4 8 10 31 9 22 9 16 11 16 9 11 7 8 13 10 10 9v2l3 1h-49l-11-6-13-10-13-12-9-9-11-14-10-15-9-17-9-24-5-22-3-25v-20l3-24 5-20 7-20z" fill="#BDBDBE"/>
<path transform="translate(882,868)" d="m0 0h3v92l-1 19-7 9-9 6h-2l-1 3-5 4h-2l-2 4-7 8-11 6-8 7-4 2-1 3h-2v2h-2l2 2 4-2-7 7h-3v-114l1-10h3l1-3 6-3 4-1 11-8 10-9 10-8 8-7h2v-2z" fill="#BDBDBE"/>
<path transform="translate(959,1759)" d="m0 0h54l47 3 29 2 3 2v3l-13 3-14 1-3 1 14 3 1 2-1 2-14 4 5 4-2 4-4 2v9l-4 8-2 1-50 1h-38l-24-1-3-7-4-11-3-4-3-6-7-7-1-4-8-4-4-1-1-4 18-3z" fill="#171617"/>
<path transform="translate(1242,681)" d="m0 0h6l-4 2-3 1v878l15 6 5 4h-2l2 4 7 4 4 4 1 3 4 4v2l-3 2 1 5-3 9v6h-1l-3-9-3-5-1-4-5-4-7-4-2-5-9-3-5-3-4-3v-5h2l1-4 4-3-1-29-1 8h-1v-320l-2-3-2 12-2-1-3-16-1-13-2-8-1-23-1-33v-68l1-3 2-43 1-10-1-7h-2l-1-32 1-13h2l2-1-2-6 1-1-2-1v-8h2l1-3 1-12 1-3 1-16 4-1 1-10h1v-138l-1-43 1-25h2l1-10z" fill="#F51012"/>
<path transform="translate(909,1475)" d="m0 0h2l1 112 7 2v1h-5l-2 4-9 2h-32l-27-1-15-2-5-2-2-5-1-10 1-19 3-5 8-5 8-10 10-10 6-5 7-4 1-2h2l3-9 10-8 14-12 11-9z" fill="#0000EB"/>
<path transform="translate(1221,980)" d="m0 0h2v26h2l2 7-1 10-2 43-1 3v78l2 48 2 6 1 13 3 16 2-11 1-9h1l1-17h1v335l1-54h1l1 90-5 3-1 3h-2l1 5 5 4 12 5 2 5-6-2-2-1v-2l-11-3h-11l-1-2z" fill="#DF0F11"/>
<path transform="translate(983,96)" d="m0 0h36l16 2 23 4 17 5 19 7 16 8 16 9 12 8 20 16 14 14 9 11 11 15 12 19 12 25 8 24 5 22 3 23v33l-4 27-4 18-2 2 1-8 5-28 1-10v-39l-3-21-6-24-7-20-8-16-8-15-8-12-8-11-18-20-12-11-16-12-17-11-21-11-18-7-24-7-30-5-10-1h-29l-29 3-20 5-24 8-24 12-19 12-12 9-15 13-13 13-9 11-12 17-8 13-8 16-9 24-7 28-3 22v38l3 23 4 19 5 16 6 16 10 21 11 18 11 13 7 9v5l-5 9-3 12-1 21-2 1-58 2-9 3-8 6-6 7-5 11-1 5v72l3 11 7 9 7 6 12 5 16 2 1 1 1 10v904l-3 2-13 2-11 4-9 6-6 8-4 11-1 4v71l4 12 6 8 9 7 13 4 39 1 17 1 1 1v14l2 13 4 9 6 7 8 5 13 5 4 6 4 8 7 6 8 3 10 2 12 5 4 7 7 23 7 8 9 10 4 8 8 12 9 10 10 7 13 6 9 3 11 2h20l16-4 16-8 9-7 7-7 9-14 7-11 13-13 3-10 4-14 6-9 8-4 20-5 8-6 6-12 4-3 11-4 9-6 6-8 4-14v-19l2-2 54-2 13-3 10-7 6-8 4-9 1-9v-69l-1-8 2 2 2 8v68l-2 11-3 6-6 8-8 8-9 4-4 1-34 1h-25v21l-2 8-5 10-8 8-10 5-8 1v2h-2l-3 9-6 8-8 4-19 4-6 4-5 7-4 15-3 9-8 9-5 4-8 14-6 9-9 10-8 7-15 8-16 5-8 1h-13l-13-2-13-4-12-6-11-7-10-11-9-13-6-12-4-3v-2l-4-1-4-6-4-14-4-13-5-5-10-4-13-2-8-5-7-8-4-9-13-5-11-8-5-7-3-9-1-4-1-16 1-6h-52l-12-2-9-4-6-4-7-10-4-11-1-12 1-63 2-10 5-10 5-5 9-7 15-5 10-1 1-1 1-911h-8l-14-3-9-4-9-8-5-9-3-8v-73l2-10 5-10 8-9 8-5 11-3 56-1v-18l4-15 4-8v-5l-7-7-11-14-8-12-8-14-6-12-6-16-5-17-3-13-4-25v-37l2-19 5-24 6-20 5-13 7-15 8-14 13-19 9-11 2-3h2l2-4 16-16 14-11 13-9 22-13 15-7 26-9 15-4z" fill="#C10E0F"/>
<path transform="translate(753,1572)" d="m0 0 5 2v2l3 1-8 5-6 1v2h-2l-1 3-6 5-2 5h-2v2l-5 5-4 16-1 13v46l1 9 3 14 4 10v2l3 1-1 2 5 1 9 6 8 3 12 1h23l11 3 1 5 5 2v3l8 1 1 5v7l3 5 2 7 3 3v2h2l5 5 8 5v2l4 2 6 4 7 8 5 4 9 3 4 3 2 1v2h2v2l5 2 4 6 1 6 4 1 3 3v2h2l3 8 1 5 4 2 4 7v2h3v3l5 2 4 6 3 5 2 1 3 7 4 5v2l3 1 5 5v2l4 1v2l9 1 1 2 13 4 17 3 1 1h16l15-3 10-4 5-3 7-1 7-4h2v-2h4v-2l4-1v-2l6-3 5 2v3l2 1-6 6-1 4-10 7-16 8-15 5-11 2h-22l-12-2-15-5-16-8-9-7-5-4v-2h-2l-7-8-9-12-7-12-11-11-6-9-3-9-2-13-19-4-8-4-12-11-6-9-14-7-12-11-7-10-5-15-1-8-39-1-11-3-10-4-10-8-8-8-6-9-4-10-2-13v-68l2-13 4-10 7-11 10-10 2 1-9 9-8 12-4 11v3l4-8 5-6 6-13 10-8 10-2z" fill="#F51012"/>
<path transform="translate(1181,1496)" d="m0 0 2 3v98l-2 1-71 1h-31l-18-1 5-6 11-9 15-13 11-9 15-13 11-9 14-12 11-9 12-10 14-11z" fill="#F51012"/>
<path transform="translate(1171,345)" d="m0 0 5 2 1 3 2 9v9l-2 5-2 11-3 8-5 20-2-1 1 3-2 6-3 3-9 13-8 11-1 4-9 10-13 12-15 11-7 4h-43l2-2h3l1-4 27-27 8-10 13-21 8-16 7-16 4-10 3-7 2-6 3-4 7-1 6-7 10-2 3-1 1-3z" fill="#BDBDBE"/>
<path transform="translate(892,661)" d="m0 0 17 1h49l-2 1-1 2-69 1-1 44-1 14-10 9-8 7-12 10h-2l-1 3-13 10-11 9-1 2h-2l-1 3h-3l-1 3-2-1v-82l1-34 3-1h67z" fill="#BDBDBE"/>
<path transform="translate(1182,1246)" d="m0 0 2 3 1 10v120l-4 4-8 7-14 12-11 9-14 12-11 9-13 11-11 9-13 11-11 9-14 12-11 9-13 11-11 9-14 12-12 10-2-1 5-5h2l2-4 5-5 3-1v-2l5-2v-2l6-5 5-5h2l1-3 5-5 8-7 4-3h2v-2l8-4h2l2-4 7-8 11-6 11-12 10-7 6-4 1-2h2l2-4 5-5 6-4 6-2 8-10 15-14 5-4h2v-2l5-5 4-10 1-31-1-5-1-14-8-17-4-3-1-8 3-1-2-8-5 4h-7l-22 14-11 9-7 6-7 9-15 9-4 5h-2v2l-17 11-13 10-12 11-6 4-10 9-11 9-5 4-9 4-5-1 5-5 11-10 11-9 13-11 11-9 28-24 11-9 13-11 11-9 14-12 11-9 15-13 11-9 13-11 12-10z" fill="#0000C2"/>
<path transform="translate(930,512)" d="m0 0h111l38 2 2 3v12l3 8-1 4-20 1-60 1h-42l-61-2-1-2 2-14-1-3v-7l1-1 8-1z" fill="#171617"/>
<path transform="translate(746,531)" d="m0 0 2 1-7 6-7 11-2 6-1 7v73l5 12 6 8 6 5 15 5 15 2v911l-4 2-11 2-12 4-9 7h-2l-2 4-2-1 3-5 5-4 1-2h2v-2l10-4 3-2-3-3-4-1-9 2-2-1-1 2-8 6-3 1-3 9-6 9-4 7-2 6-1 63h-1v-64l2-9 4-9 8-12 9-9 16-8 8-2 1-96h1l1 61v32l4 1 1-2 3-3v-8l2-13 1-95 2 1v-737l-2 1v-5h-2l-3-8-1-2-4-1-1 152v593h-1l-1-20-1-730-2-3-3-1-3-7-1-3-5-1-1-2-4-2-1-2-6-2v-3h-2l-3-6-3-9-2-12-2-14-1-23v-15l2-17 3-10 2-4h2v-3l5-4 7-8z" fill="#E01012"/>
<path transform="translate(937,1706)" d="m0 0h67l44 1 14 1 7 3 2 1 2 11 4 6v5l-10 2-21 1-58 1h-42l-26-1-12-1-7-3-1-6 5-9 3-7 4-3z" fill="#171617"/>
<path transform="translate(909,1224)" d="m0 0h2l1 4 1 92v17l-1 22-14 13-10 8-14 12-13 11-11 9-14 12-14 11-3 2 2-4-2-1 1-8 5-5 7-4h5l2-4 5-6 12-12 4-1v-2l7-5h3l1-3 4-2 6-7h2l2-4 7-10 5-2 1-5-6 1-3-6-1-1-2-16-1-5v-41l-1-16-7 3-6 7h-2l-2 4-4 4-8 4-4 3-7 1 1-8 6-7 6-5 4-1v-2l11-8 1-2h2v-2h2v-2l5-4 4-6 4-5-14 12-6 5-2-1 10-9 14-11 9-8z" fill="#F51012"/>
<path transform="translate(878,1623)" d="m0 0h54l15 1 2 1v2h2l2 5 3 3v9l1 5-1 6 1 6-2 12h-2v2h-2v2l-2 1h-13l-8-1-57-1-13-1-10-2-2-1v-3l9-1 78-1-7-1-59-2-7-1-10-4 3-3 19-2h23l7-1-12-1h-16l-7-1-1-1-17-3-3-2 2-1 22-2h49l8-1-4-1-5-1-50-1-18-2-2-1 1-3 22-2h8z" fill="#BCBCBD"/>
<path transform="translate(909,703)" d="m0 0h2l1 8 1 96-1 31-4 5-20 16-12 11-2-1 9-9-2-2 1-15 1-10-1-8v-58l-1-31 3-9-4 1 4-5 11-8 10-9z" fill="#F51012"/>
<path transform="translate(880,566)" d="m0 0h16l46 1 15 1-3 3 3 1-1 13v12l2 5-4 5h-2l4 5v3l-13 3-9 1-1-1-15-1h-49l-23-1-9-1-2-2 6-1 18-1 73-2 4 1v-2l-19-1h-26l-3 1v-2l-4 2h-8l-1-3-25-1-9-2v-1l36-5h38l5-1v-2l-65-1-12-1-1-2 16-3 14-2 65-1v-2l-80-1-14-1-2-1v-2l13-2 16-2h63l3-1-7-1-46-2z" fill="#BEBEBF"/>
<path transform="translate(910,964)" d="m0 0h1v125h-2l-7 14-10 7-9 1-3-7-2-22v-15l3-32 1-13v-16l1-2 2-15 4-5 8-3 3-2 9-1 1-12-2-1z" fill="#0000EB"/>
<path transform="translate(806,645)" d="m0 0 1 3 1 739v214l5 7-1 2-44 1-6 4-2 3v68l4 5 2 1 83 2 2 2-1 5v42l2 3 31 1 2 2-1 8v14l17 4 11 6 1 2-5-2-13-5-13-3v-19l1-5h-29l-5-3-2-8v-36l2-6h-79l-7-3-5-5-2-11v-47l1-11 3-6 8-5 40-1-3-8-1-285v-517l1-151z" fill="#171617"/>
<path transform="translate(985,1762)" d="m0 0h14v4l11 3 6 3 2 4 1 10-1 20-1 3-8 2-6 1h-24l-17-2-3-5-1-2v-6l2-4v-2h-2v-3l3-3-4-8 5-6 3-2 14-3-1-3z" fill="#BDBDBE"/>
<path transform="translate(987,135)" d="m0 0h26l25 3 19 5 22 8 11 6-4 1v2l6 4v2l4 2 2 2v3l-4 1-12-3-11-2-8-4-14-9-5-2-22-11-1-2 1-2-24-1-13 2-1 3-8 3-12 6-10 6-23 9-11 3h-6l-7 2-3-1v2l-3-1 1-5-3-1-5 3-2-1 10-7 17-9 17-7 18-5 21-4z" fill="#BDBDBE"/>
<path transform="translate(1207,650)" d="m0 0h28v1l-28 1 1 633v99l-1 211h25l10 3 8 7-1 2-8-7-6-2-26-1-3-1-1-3v-917l1-25z" fill="#171617"/>
<path transform="translate(791,226)" d="m0 0 1 3-6 14-5 14-5 19-4 22-1 13v37l5 29 6 23 5 14 5 12 7 12 6 10 9 13 12 14 3 3v5l-3 6-1-4v-4l-5 1-3-1-5-5v-2h-2v-3h-2v-3h-2v-3h-2l-3-5-3-2v-4h-2v-2h-2l-1-7-3-1-4-8-1-7-4-2-1-3 1-3h-2l-2-5v-6l-3-8-3-10-1-10-2-2-2-14-2-7-2-22-1-4-1-5v-15l2-4 1-17 4-8h2l1-6v-6l3-5 1-4h2l2-10h2l3-10 7-16z" fill="#E01012"/>
<path transform="translate(750,640)" d="m0 0 8 6 7 3 28 1 1 1v941l-1 4-3 1-25 1-9 4-7 8-2 7v70l3 8 1 3 4 2 6 4 15 2h58l3 2 1 41-2-3-1-3v-35l-63 1-11-2-6-3-7-8-4-11v-62l2-12 6-9 5-4 9-3h26v-289l1-654h-21l-12-2-6-4-4-4z" fill="#171617"/>
<path transform="translate(1220,666)" d="m0 0h1l1 914h11l11 4-3 1-6-2-14-1-2-2v-911z" fill="#C10E0F"/>
<path transform="translate(985,1834)" d="m0 0h26l25 2 2 6-5 9-5 6-15 9-5 2h-18l-8-4-6-7-1-7v-3l3-9 5-3z" fill="#171617"/>
<path transform="translate(858,650)" d="m0 0h100l13 1-1 3-2-1h-85l1 3 11 2 8-1 34-1h28l-4 5-7 2h-45l-17-1-4 1h-69l-1 42v76l-2-1v-123l1-3 7-3z" fill="#171617"/>
<path transform="translate(1181,1496)" d="m0 0 2 3v98l-2 1-71 1h-31l-18-1 2-3 4 1h82l23-1h7l-1-7-7-1-2-3-5-3v-12l3-3v-8l-1-6 2-9-2-1v-11l4-5h5 2l1-3 1-13-8 1-4 2h-3l-1 3-11 9-14 11-11 10-13 10-7 6-2-1 7-8 11-9 14-12 11-9 13-11 14-11z" fill="#E01012"/>
<path transform="translate(1195,492)" d="m0 0 2 3 2 10 38 1 15 4 10 5 4 4v2l6 7 3 9-1 5-3 8h-2v-2h-2l-2-8-8-5-5-6-10-4-10-2h-26l-8-2h-9l-7 2-2-3v-23l4 1v3h3l5 7 4 1v2l12 2 14-3 1-1h15l-4-1-36-1-2-4z" fill="#F51012"/>
<path transform="translate(946,513)" d="m0 0h47v17l1 2v6l2 3-35 1-18-1-2-3v-22l1-2z" fill="#BDBDBE"/>
<path transform="translate(868,1509)" d="m0 0 1 4-2 3h-2l-1 3-11 7-3 3h-2l-2 4-3 4h-2l-2 4-8 9-7 4-1 7-1 19 2 10 5 2 15 2 39 1h20l9-2 2-3h5v-2h6l1-14 2-3v4h2l2 6 13-1-5 5-9 8-4 3-1 3-3 1h-101l-7-2-1-1v-22l1-17 2-7 6-4 15-13 11-9 14-12z" fill="#0000C2"/>
<path transform="translate(896,714)" d="m0 0 2 1-4 6-5 6-2 4v17l1 10v28l1 14 2 11 3 8 5 5 4 1-4 3v7l-6 7h-2l-1 4-2 2v5l2 1v-2l8-6 7-7 2-1 1-22h1v23l-5 5-12 10-7 8-9 8-2-1 9-9-2-2 1-15 1-10-1-8v-58l-1-31 3-9-4 1 4-5 11-8z" fill="#E01012"/>
<path transform="translate(1200,988)" d="m0 0h2l1 11v74l-1 63-2 6v3l-1 5-2-4v-152l1-5z" fill="#FBFBFB"/>
<path transform="translate(1134,650)" d="m0 0h39l10 1 1 1v89l-2-3v-68l-1-6-61-1 1-3 8-7z" fill="#161516"/>
<path transform="translate(1261,1718)" d="m0 0h7l-1 4h3l-7 6-3 2 1 2-12 6-8 2-11 1h-32v8l-4 12-4 8-2 1 2-6 4-11 2-12 3-2 7-1-1-5 5-3 16-2 11-1 9-3 4-2 6-2z" fill="#F51012"/>
<path transform="translate(1e3 93)" d="m0 0h14l26 2 14 3 16 4 7 3 20 8 19 8 8 6 10 4 8 7 5 3 5 5 6 5v2l3 1 7 10-1 2-13-13-9-7-15-11-19-11-14-7-20-8-13-4-11-3-24-4-11-1h-36l-23 3h-7l4-2 24-3z" fill="#E01012"/>
<path transform="translate(1136,174)" d="m0 0 4 2 9 9 9 11 9 12 10 16 8 16 8 19 7 25 3 18 1 13v20l-2 20-4 20-5 16-4 11-7 15-7 14-4 4 2-5 11-23 8-22 4-15 3-17 1-16v-25l-2-21-6-25-7-20-9-19-13-21-11-14-14-15z" fill="#171617"/>
<path transform="translate(981,123)" d="m0 0h44l19 3 23 6 20 8 13 7-2 1-19-9-21-7-19-4-20-2h-41l-24 4-18 5-20 8-19 10-15 10-11 9h-2l-1 3-8 7h-2l-2 4-7 7-1 2h-2l-2 4-8 10-7 11-2 1 2-5 8-12 9-11 9-10 11-11 17-13 17-11 16-8 20-8 24-6 10-2z" fill="#171617"/>
<path transform="translate(960,1720)" d="m0 0 3 1 7 2 15 5 5 3 2 1v2l3 1-5 1h-44l-8-3 6-7 6-3 9-1z" fill="#BDBDBE"/>
<path transform="translate(1181,997)" d="m0 0h1l1 5v111l-1 19h-2l-2 4-11 10-4-1 4-5 4-1 1-3h2l1-4 3-1 1-10v-115h-3l-6 5-7 4-4 4-2-1 15-15z" fill="#C30E0F"/>
<path transform="translate(985,110)" d="m0 0h34l18 2 26 6 17 6 16 7 22 12 11 8h-3l-13-8-23-12-21-8-23-6-18-3-10-1h-35l-23 3-17 4-21 7-20 9-14 8-11 7-9 7-2-1 10-8 14-9 18-10 19-8 19-6 19-4z" fill="#171617"/>
<path transform="translate(956,663)" d="m0 0h23l18 1 2 1 1 6 1 22v55l1 8-1 5 3 1-6 5h-3l2-4 1-10-1-1v-72l-1-6h-2l-2-4-6-4h-24l-6 3-9 6-12 11-4 3-2-1 9-10 14-11 4-2z" fill="#E01012"/>
<path transform="translate(1171,1785)" d="m0 0 2 1-15 8-4 8-8 8-12 7-20 4-2 15-6 12-2 1 2-5 3-9 2-13 3-4 9-1v-4l1-3h2v-3h2l2-5 3-1v-2l6-2h4l4 9 6-7 5-8z" fill="#F51012"/>
<path transform="translate(887,1376)" d="m0 0 2 1-10 11-11 9-26 22-11 9-10 8-2 1 2-4-2-1 1-8 5-5 7-4h5l4-1 8-6 5-6 3-1 2-2 8-6 5-6 6-4h2l2-4 4-2z" fill="#E61012"/>
<path transform="translate(827,150)" d="m0 0 2 1-2 5-7 6-5 5-6 7-6 8h-2l-2 4-5 7-5 9-4 8-5 11-3 11-5 7-7 22-2 6-3 14-4 20h-1l1-14 6-28 8-24 12-26 3-6 3-8 5-7 5-5 4-6h2l2-5h2l2-4 9-10 7-6z" fill="#E01012"/>
<path transform="translate(826,221)" d="m0 0 1 2-8 15-7 17-7 23-4 26v42l3 21 6 22 6 16 8 17-1 2-8-15-9-24-5-19-3-20-1-8v-25l3-25 5-20 7-20 10-21z" fill="#171617"/>
<path transform="translate(888,652)" d="m0 0h81l-3 4-7 1h-33l-28 1-5 1-9-2-1-4z" fill="#BDBDBE"/>
<path transform="translate(746,512)" d="m0 0 2 1-5 4-7 6-2 3h-2l-1 4h-2l-2 6-7 10-1 3h-2l-2 13v66l-2 4-1-18v-42l1-16 4-13 6-11 6-10 7-5 5-2z" fill="#E11012"/>
<path transform="translate(889,622)" d="m0 0h57l5 1-2 2-6 1-44 1h-31l-25-1v-1l5-1 14-1z" fill="#BDBDBE"/>
<path transform="translate(1181,1498)" d="m0 0 2 1v98l-2 1-71 1h-31l-18-1 2-3 4 1h115l-1-3-1-18v-56l1-17-3-1z" fill="#C10E0F"/>
<path transform="translate(817,1301)" d="m0 0h2l1 4-1 127 3 1-3 4h-2l-1-23v-27z" fill="#C00E0F"/>
<path transform="translate(1242,1621)" d="m0 0h1v63l-3 7-5 4-6 1-78 1 1 3v43h-1l-1-42-2-6 1-1 85-1 5-4 2-6z" fill="#171617"/>
<path transform="translate(1178,874)" d="m0 0h3l-1 5-4 4-6 4-11 8-12 11-4 4-3 1-5 5-11 9-7 4-3 3-5 1 5-5 14-12 10-8 15-13 11-9z" fill="#eee"/>
<path transform="translate(997,1839)" d="m0 0 5 1 4 7v15l-3 3h-8l-2-2v-19z" fill="#BEBEBF"/>
<path transform="translate(1180,1133)" d="m0 0 3 1v111l-5 5-2-1 3-3v-26l1-29z" fill="#BDBDBE"/>
<path transform="translate(990,133)" d="m0 0h20l25 3 21 5 13 5-3 1-19-6-15-3-19-2h-26l-19 2-22 5-15 5-20 9-4 1 4-4 21-9 14-5 16-4 13-2z" fill="#171617"/>
<path transform="translate(1241,258)" d="m0 0 2 4 5 23 2 15 1 14v24l-3 27-6 28-7 20-1-3 5-16 2-12 3-9 3-21 1-9v-38l-2-18-5-24z" fill="#F61013"/>
<path transform="translate(848,504)" d="m0 0h1l1 45 2 5-4 1-20-1h-60l-4 1 3-3 2-1h51l29 1-1-2-1-19v-23z" fill="#171617"/>
<path transform="translate(818,1437)" d="m0 0 2 1v110l2 1-4 2-1-1v-111z" fill="#BDBDBE"/>
<path transform="translate(1060,1847)" d="m0 0 1 3-7 13-7 9-7 6-11 6-15 5-7 1h-17l-13-3-14-7-11-10h3l7 6 12 7 13 4h24l14-4 13-7 10-9 9-14z" fill="#171617"/>
<path transform="translate(1166,1508)" d="m0 0 2 1-3 3-2 4-11 9-14 11-11 10-13 10-7 6-2-1 7-8 11-9 14-12 11-9 13-11z" fill="#E71012"/>
<path transform="translate(826,399)" d="m0 0 3 1v5h2l3 5 2 4 2 1 3 6 3 4v3l3 1 7 11 4 5-1 4-4-2-8-10-8-12-3-8-6-11z" fill="#F1F1F1"/>
<path transform="translate(928,1678)" d="m0 0h6l3 3v1l-38 1h-33l-3-2 2-1 54-1z" fill="#BDBDBE"/>
<path transform="translate(1264,546)" d="m0 0 2 1 3 10 1 4v70l-4 13-4 6h-2l6-15 1-9v-67z" fill="#C10E0F"/>
<path transform="translate(817,1180)" d="m0 0 2 3v53l1 63h-3z" fill="#BDBDBE"/>
<path transform="translate(1226,1474)" d="m0 0 3 1 2 14-1 13-2 5h-2l-3-5v-20z" fill="#F61013"/>
<path transform="translate(887,1376)" d="m0 0 2 1-10 11-11 9-26 22-2-1 9-10 5-6 3-1 2-2 8-6 5-6 6-4h2l2-4 4-2z" fill="#E91012"/>
<path transform="translate(927,1052)" d="m0 0h1l1 11 2 4v3l5 1 8-1-5 6-12 9h-1v-31z" fill="#0000C3"/>
<path transform="translate(1172,487)" d="m0 0 3 3 3 6 1 5v23l57 1 11 4 8 5 6 5 3 5-1 2-9-10-10-6-6-2-17-1h-22l-21-1-1-1v-21l-2-9-3-6z" fill="#C10E0F"/>
<path transform="translate(979,79)" d="m0 0h43l9 1 1 1 13 1v1l-9 1-4 1h-10l-21-3v-2l-21 1h-8v-1z" fill="#E01012"/>
<path transform="translate(1181,1382)" d="m0 0h2v110h-1l-1-37v-70l-2-2z" fill="#BDBDBE"/>
<path transform="translate(1198,1507)" d="m0 0 4 3v32l-1 4h-2l-1 2-1-5v-33z" fill="#FCFCFC"/>
<path transform="translate(932,86)" d="m0 0m-4 1 4 1-8 3-19 7-23 11-13 8-12 8-14 11-3 3-2-1 9-9 14-10 20-12 16-8 25-10z" fill="#F61013"/>
<path transform="translate(806,477)" d="m0 0 4 4 1 5-4 8-2 13-4 2h-3v2l-9-1-14-1-23 2 2-2 11-2 38-1 2-15 2-4v-7z" fill="#E01012"/>
<path transform="translate(909,1475)" d="m0 0h1v14h-10l-11 7-2-1 2-4 10-8z" fill="#0000C2"/>
<path transform="translate(1258,662)" d="m0 0 4 3v5l-6 5-6 2-1 2-5-4 1-4 7-5h3v-2z" fill="#F61013"/>
<path transform="translate(827,150)" d="m0 0 2 1-2 5-7 6-5 5-6 7-6 8h-2l-2 4-5 5-7 10-1-2 7-11 5-5 4-6h2l2-5h2l2-4 9-10 7-6z" fill="#E31012"/>
<path transform="translate(1085,1576)" d="m0 0h3l-1 4-5 4-6 7h-2v2l2 1 2 3h-11l-3-3 15-13z" fill="#E30F12"/>
<path transform="translate(1181,1496)" d="m0 0v3l-2 2 2 1v17l-1 5-2-1 1-13-8 1-4 2-3-1 7-8z" fill="#E00F11"/>
<path transform="translate(846,1013)" d="m0 0h5l-5 5-14 12-10 6-1-3h2v-2l16-14 6-3z" fill="#F1F1F1"/>
<path transform="translate(943,936)" d="m0 0 2 2-9 9-4 6-3 10-1 7h-1l-2-18 5-5 11-10z" fill="#0000C3"/>
<path transform="translate(1152,129)" d="m0 0 4 1 10 8 15 14 7 8v3l-4-1v-3l-4-1v-3h-3l-2-4-6-5-6-7-11-9z" fill="#E60F12"/>
<path transform="translate(1182,1131)" d="m0 0 2 1v117l-2-4v-111l-2-2z" fill="#171617"/>
<path transform="translate(1169,410)" d="m0 0 1 2-6 11-8 12-10 13-3 1 2-5 6-8 9-13 2-3h2l1-9z" fill="#EAEAEA"/>
<path transform="translate(1230,271)" d="m0 0 2 2 1 4v9h2l2 3-2 13-2 2-1-2-3-20v-10z" fill="#F61013"/>
<path transform="translate(785,201)" d="m0 0 1 2-11 23-8 20-4 13h-2l2-10 6-16 11-24z" fill="#F61013"/>
<path transform="translate(831,1415)" d="m0 0h5v3h-2v3h-2l-1 2-8 6-2 2-1-1v-6l5-5z" fill="#F61013"/>
<path transform="translate(918,92)" d="m0 0 3 1-28 12-20 12-7 2 3-3 19-11 24-11z" fill="#E01012"/>
<path transform="translate(929,1804)" d="m0 0 2 2 4 16 11 1 2 3 2 12 8 16-1 2-4-5-5-11-3-14-1-1-11-1-4-17z" fill="#171617"/>
<path transform="translate(1223,695)" d="m0 0 1 2h2l1-2 1 8v15l-2 1-2-1v-10l-1-1z" fill="#F61013"/>
<path transform="translate(1173,1774)" d="m0 0 7 2-4 5-5 3-4-1h-2l-1-4 4-4z" fill="#F61013"/>
<path transform="translate(1177,478)" d="m0 0 5 5v7l-2 5-4-3-2-8 1-5z" fill="#F61013"/>
<path transform="translate(1259,1572)" d="m0 0 5 1 10 9 5 7v2l-4-2-3-2v-3l-4-2-1-2-7-4z" fill="#E50F12"/>
<path transform="translate(954,665)" d="m0 0 2 1-5 6-11 9-7 7-4 1 6-8 10-9z" fill="#E61012"/>
<path transform="translate(761,633)" d="m0 0 4 2 8 2 38 1v4l-4 3 2-5-41-1-6-4z" fill="#171617"/>
<path transform="translate(1165,1142)" d="m0 0m-1 1m-1 1m-1 1 3 2-11 10-6 5-4-1 7-6h2l1-4 4-4z" fill="#D60E10"/>
<path transform="translate(1259,650)" d="m0 0v3l-8 7-12 5-3 1h-15v-1l14-2 11-4 10-6z" fill="#C10E0F"/>
<path transform="translate(983,902)" d="m0 0 2 1-3 5-10 8-7 4-2-1 15-13z" fill="#0000C7"/>
<path transform="translate(908,1327)" d="m0 0h1v33l-8 7-2-1 5-6 3-4v-13z" fill="#E01012"/>
<path transform="translate(878,178)" d="m0 0 2 1-26 26v-3l15-16z" fill="#CDCDCE"/>
<path transform="translate(1164,1009)" d="m0 0 2 1-8 8-2 4-9 6-2-1 4-2 1-4z" fill="#D70E10"/>
<path transform="translate(827,897)" d="m0 0h3v4l-8 8h-2v-7z" fill="#E01012"/>
<path transform="translate(1188,638)" d="m0 0h43v1l-37 1-3 1 2 4-6-5z" fill="#171617"/>
<path transform="translate(1252,1589)" d="m0 0 10 5 4 4 1 7-2 1-5-8-8-8z" fill="#D10F10"/>
<path transform="translate(1177,1528)" d="m0 0 2 2v19l-2 3-3-12 2-9z" fill="#F61013"/>
<path transform="translate(1147,1023)" d="m0 0h2v2l-10 8-11 10-4 1 6-7 10-8z" fill="#F11012"/>
<path transform="translate(877,575)" d="m0 0 14 1 3 2-22 1-4-2 1-1z" fill="#FCFCFC"/>
<path transform="translate(1190,1605)" d="m0 0 1 2 41 1v1l-43 1v-4z" fill="#171617"/>
<path transform="translate(1140,450)" d="m0 0h2l-2 5-12 12-3-1 14-14z" fill="#E8E8E8"/>
<path transform="translate(1102,1562)" d="m0 0h2l-1 3-8 8-6 4 2-4 7-8z" fill="#E41012"/>
<path transform="translate(1076,1830)" d="m0 0 1 2-3 4-10 1-1 8-2 2 2-11 7-2 5-3z" fill="#171617"/>
<path transform="translate(1169,410)" d="m0 0 1 2-6 11h-3l1-3h2l1-9z" fill="#E5E5E6"/>
<path transform="translate(1116,1550)" d="m0 0 2 1-8 9-5 2 6-8z" fill="#E51012"/>
<path transform="translate(893,481)" d="m0 0 5 2 6 1 5 2v1h-10l-6-4z" fill="#ECECEC"/>
<path transform="translate(870,134)" d="m0 0 2 1-12 9-5 4h-2v-2h2v-2z" fill="#E01012"/>
<path transform="translate(1123,920)" d="m0 0 2 1-11 11-5 1 5-5z" fill="#DCDCDD"/>
<path transform="translate(1188,163)" d="m0 0 5 3 6 7v2l-4-2-5-6-2-1z" fill="#E60F12"/>
<path transform="translate(907,705)" d="m0 0h3v4l-9 6-2-1 7-7z" fill="#E01012"/>
<path transform="translate(1152,129)" d="m0 0 4 1 9 7-4 1-9-8z" fill="#E91012"/>
<path transform="translate(808,197)" d="m0 0v3l-9 14-1-3 7-11z" fill="#E01012"/>
<path transform="translate(886,858)" d="m0 0 2 1-12 11-2-1 7-7z" fill="#F11012"/>
</svg>
